<?xml version="1.0" standalone="no"?>
<!DOCTYPE svg PUBLIC "-//W3C//DTD SVG 20010904//EN"
 "http://www.w3.org/TR/2001/REC-SVG-20010904/DTD/svg10.dtd">
<svg version="1.0" xmlns="http://www.w3.org/2000/svg"
 width="400.000000pt" height="400.000000pt" viewBox="0 0 400.000000 400.000000"
 preserveAspectRatio="xMidYMid meet">
<metadata>
Created by potrace 1.11, written by Peter Selinger 2001-2013
</metadata>
<g transform="translate(0.000000,400.000000) scale(0.100000,-0.100000)"
fill="#000000" stroke="none">
<path d="M1895 3859 c-434 -67 -725 -291 -828 -639 -32 -108 -38 -152 -38
-288 0 -246 60 -416 212 -600 126 -153 281 -252 713 -459 307 -146 340 -164
438 -235 205 -149 283 -345 233 -583 -48 -225 -215 -379 -480 -440 -88 -21
-320 -21 -436 -1 -167 30 -362 108 -556 223 -171 102 -213 71 -213 -157 0
-177 38 -229 235 -325 131 -64 223 -95 388 -132 112 -25 140 -27 347 -27 248
-1 321 9 500 66 359 115 608 367 694 703 50 192 46 400 -10 575 -40 125 -107
233 -214 341 -149 152 -219 192 -860 502 -346 167 -510 355 -510 588 0 342
281 545 692 500 172 -18 294 -63 541 -195 125 -67 148 -68 175 -8 20 47 23
259 4 314 -18 51 -75 99 -173 146 -203 96 -367 133 -614 137 -99 2 -207 0
-240 -6z"/>
</g>
</svg>
